<?xml version="1.0" encoding="utf-8"?>
<!-- Generator: Adobe Illustrator 22.0.1, SVG Export Plug-In . SVG Version: 6.00 Build 0)  -->
<svg version="1.1" id="Capa_1" xmlns="http://www.w3.org/2000/svg" xmlns:xlink="http://www.w3.org/1999/xlink" x="0px" y="0px"
	 viewBox="0 0 512 512" style="enable-background:new 0 0 512 512;" xml:space="preserve">
<style type="text/css">
	.st0{fill:#E04141;}
</style>
<g>
	<g>
		<path class="st0" d="M112.2,62.8L70,20.6c-1.6-1.6-3.8-2.5-6-2.5c-2.3,0-4.4,0.9-6,2.5L21.7,56.8c-3.3,3.3-3.3,8.7,0,12.1
			l42.2,42.2c1.7,1.7,3.8,2.5,6,2.5c2.2,0,4.4-0.8,6-2.5l36.2-36.2c1.6-1.6,2.5-3.8,2.5-6S113.8,64.4,112.2,62.8z M70,93L39.8,62.8
			l24.1-24.1l30.2,30.2L70,93z"/>
	</g>
</g>
<g>
	<g>
		<path class="st0" d="M299.2,237.8l-181-181c-3.2-3.2-8.9-3.2-12.1,0l-48.3,48.3c-3.3,3.3-3.3,8.7,0,12.1l181,181
			c1.7,1.7,3.8,2.5,6,2.5s4.4-0.8,6-2.5l48.3-48.3c1.6-1.6,2.5-3.8,2.5-6C301.7,241.6,300.8,239.4,299.2,237.8z M244.9,280.1
			l-169-169l36.2-36.2l169,169L244.9,280.1z"/>
	</g>
</g>
<g>
	<g>
		<path class="st0" d="M337.3,276.8c-1.3-3.2-4.4-5.3-7.9-5.3c-14.2,0-27.7-13.4-27.7-27.7c0-3.4-2.1-6.6-5.3-7.9s-6.9-0.6-9.3,1.9
			l-48.3,48.3c-2.4,2.4-3.2,6.1-1.9,9.3c1.3,3.2,4.4,5.3,7.9,5.3c6.8,0,13.7,3.1,19.1,8.5c5.4,5.4,8.5,12.4,8.5,19.1
			c0,3.4,2.1,6.6,5.3,7.9c1.1,0.4,2.2,0.6,3.3,0.6c2.2,0,4.4-0.9,6-2.5l48.3-48.3C337.9,283.7,338.6,280,337.3,276.8z M286,311.4
			c-2.3-5.2-5.6-10.1-9.8-14.3c-4.2-4.2-9.1-7.5-14.3-9.8l26.5-26.5c4.7,10.6,13.6,19.4,24.1,24.1L286,311.4z"/>
	</g>
</g>
<g>
	<g>
		<path class="st0" d="M432,370.6L335.5,274c-3.3-3.3-8.7-3.3-12.1,0l-48.3,48.3c-1.6,1.6-2.5,3.8-2.5,6s0.9,4.4,2.5,6l96.5,96.5
			c1.6,1.6,3.8,2.5,6,2.5s4.4-0.9,6-2.5l48.3-48.3C435.3,379.3,435.3,373.9,432,370.6z M377.7,412.8l-84.5-84.5l36.2-36.2l84.5,84.5
			L377.7,412.8z"/>
	</g>
</g>
<g>
	<g>
		<path class="st0" d="M468.9,420.7l-42.8-44c-1.6-1.6-3.8-2.6-6.1-2.6c-2.1-0.1-4.5,0.9-6.1,2.5l-36.2,36.2
			c-3.3,3.3-3.3,8.6-0.1,12l42.8,44c1.6,1.6,3.8,2.6,6.1,2.6c0,0,0,0,0.1,0c2.3,0,4.4-0.9,6-2.5l36.2-36.2
			C472.1,429.4,472.1,424.1,468.9,420.7z M426.6,450.7l-30.9-31.8l24.1-24.1l30.9,31.8L426.6,450.7z"/>
	</g>
</g>
<g>
	<g>
		<path class="st0" d="M491.6,468.2l-21-45.2c-1.2-2.5-3.5-4.3-6.3-4.8c-2.7-0.5-5.6,0.4-7.5,2.4l-36.2,36.2c-2,2-2.9,4.8-2.4,7.5
			c0.5,2.7,2.3,5.1,4.8,6.3l45.2,21c1.1,0.5,2.4,0.8,3.6,0.8c2.2,0,4.4-0.9,6-2.5l12.1-12.1C492.4,475.3,493.1,471.5,491.6,468.2z
			 M469.9,473.6l-28.7-13.4l19-19l13.4,28.7L469.9,473.6z"/>
	</g>
</g>
<g>
	<g>
		<path class="st0" d="M509.4,497.4l-25.6-25.6c-3.3-3.3-8.7-3.3-12.1,0s-3.3,8.7,0,12.1l25.6,25.6c1.7,1.7,3.8,2.5,6,2.5
			c2.2,0,4.4-0.8,6-2.5C512.7,506.2,512.7,500.8,509.4,497.4z"/>
	</g>
</g>
<g>
	<g>
		<path class="st0" d="M220.8,159.4l-36.2-36.2c-3.3-3.3-8.7-3.3-12.1,0l-48.3,48.3c-3.3,3.3-3.3,8.7,0,12.1l36.2,36.2
			c1.6,1.6,3.8,2.5,6,2.5s4.4-0.9,6-2.5l48.3-48.3c1.6-1.6,2.5-3.8,2.5-6S222.4,161,220.8,159.4z M166.5,201.6l-24.1-24.1l36.2-36.2
			l24.1,24.1L166.5,201.6z"/>
	</g>
</g>
<g>
	<g>
		<path class="st0" d="M63.9,26.6L39.8,2.5c-3.3-3.3-8.7-3.3-12.1,0L3.6,26.6c-1.6,1.6-2.5,3.8-2.5,6s0.9,4.4,2.5,6l24.1,24.1
			c1.7,1.7,3.8,2.5,6,2.5c2.2,0,4.4-0.8,6-2.5l24.1-24.1c1.6-1.6,2.5-3.8,2.5-6S65.5,28.2,63.9,26.6z M33.8,44.7L21.7,32.7
			l12.1-12.1l12.1,12.1L33.8,44.7z"/>
	</g>
</g>
<g>
	<g>
		<path class="st0" d="M72.7,109.1c-4.5-1.5-9.3,0.9-10.8,5.4l-12.1,36.2c-1.5,4.5,0.9,9.3,5.4,10.8c0.9,0.3,1.8,0.4,2.7,0.4
			c3.6,0,6.9-2.3,8.1-5.8l12.1-36.2C79.5,115.4,77.1,110.5,72.7,109.1z"/>
	</g>
</g>
<g>
	<g>
		<path class="st0" d="M142.4,225.8l-78.4-78.4c-3.3-3.3-8.7-3.3-12.1,0c-3.3,3.3-3.3,8.7,0,12.1l78.4,78.4c1.7,1.7,3.8,2.5,6,2.5
			c2.2,0,4.4-0.8,6-2.5C145.7,234.5,145.7,229.1,142.4,225.8z"/>
	</g>
</g>
<g>
	<g>
		<path class="st0" d="M412.9,57l-30.2-30.2c-3.3-3.3-8.7-3.3-12.1,0c-3.3,3.3-3.3,8.7,0,12.1l30.2,30.2c1.7,1.7,3.8,2.5,6,2.5
			c2.2,0,4.4-0.8,6-2.5C416.2,65.7,416.2,60.3,412.9,57z"/>
	</g>
</g>
<g>
	<g>
		<path class="st0" d="M376.6,69.1L358.5,51c-3.3-3.3-8.7-3.3-12.1,0c-3.3,3.3-3.3,8.7,0,12.1l18.1,18.1c1.7,1.7,3.8,2.5,6,2.5
			c2.2,0,4.4-0.8,6-2.5C380,77.8,380,72.4,376.6,69.1z"/>
	</g>
</g>
<g>
	<g>
		<path class="st0" d="M364.6,105.3l-30.2-30.2c-3.3-3.3-8.7-3.3-12.1,0s-3.3,8.7,0,12.1l30.2,30.2c1.7,1.7,3.8,2.5,6,2.5
			c2.2,0,4.4-0.8,6-2.5C367.9,114,367.9,108.6,364.6,105.3z"/>
	</g>
</g>
<g>
	<g>
		<path class="st0" d="M328.4,117.3l-18.1-18.1c-3.3-3.3-8.7-3.3-12.1,0c-3.3,3.3-3.3,8.7,0,12.1l18.1,18.1c1.7,1.7,3.8,2.5,6,2.5
			c2.2,0,4.4-0.8,6-2.5C331.7,126.1,331.7,120.7,328.4,117.3z"/>
	</g>
</g>
<g>
	<g>
		<path class="st0" d="M316.3,153.6l-30.2-30.2c-3.3-3.3-8.7-3.3-12.1,0s-3.3,8.7,0,12.1l30.2,30.2c1.7,1.7,3.8,2.5,6,2.5
			c2.2,0,4.4-0.8,6-2.5C319.6,162.3,319.6,156.9,316.3,153.6z"/>
	</g>
</g>
<g>
	<g>
		<path class="st0" d="M280.1,165.6L262,147.5c-3.3-3.3-8.7-3.3-12.1,0s-3.3,8.7,0,12.1l18.1,18.1c1.7,1.7,3.8,2.5,6,2.5
			c2.2,0,4.4-0.8,6-2.5C283.4,174.3,283.4,168.9,280.1,165.6z"/>
	</g>
</g>
<g>
	<g>
		<path class="st0" d="M183.6,262.2l-18.1-18.1c-3.3-3.3-8.7-3.3-12.1,0s-3.3,8.7,0,12.1l18.1,18.1c1.7,1.7,3.8,2.5,6,2.5
			c2.2,0,4.4-0.8,6-2.5C186.9,270.9,186.9,265.5,183.6,262.2z"/>
	</g>
</g>
<g>
	<g>
		<path class="st0" d="M171.5,298.4l-30.2-30.2c-3.3-3.3-8.7-3.3-12.1,0c-3.3,3.3-3.3,8.7,0,12.1l30.2,30.2c1.7,1.7,3.8,2.5,6,2.5
			c2.2,0,4.4-0.8,6-2.5C174.8,307.1,174.8,301.7,171.5,298.4z"/>
	</g>
</g>
<g>
	<g>
		<path class="st0" d="M135.3,310.4l-18.1-18.1c-3.3-3.3-8.7-3.3-12.1,0c-3.3,3.3-3.3,8.7,0,12.1l18.1,18.1c1.7,1.7,3.8,2.5,6,2.5
			c2.2,0,4.4-0.8,6-2.5C138.6,319.2,138.6,313.8,135.3,310.4z"/>
	</g>
</g>
<g>
	<g>
		<path class="st0" d="M123.2,346.6l-30.2-30.2c-3.3-3.3-8.7-3.3-12.1,0s-3.3,8.7,0,12.1l30.2,30.2c1.7,1.7,3.8,2.5,6,2.5
			c2.2,0,4.4-0.8,6-2.5C126.6,355.4,126.6,350,123.2,346.6z"/>
	</g>
</g>
<g>
	<g>
		<path class="st0" d="M90.8,361.6l-18.1-18.1c-3.3-3.3-8.7-3.3-12.1,0c-3.3,3.3-3.3,8.7,0,12.1l18.1,18.1c1.7,1.7,3.8,2.5,6,2.5
			s4.4-0.8,6-2.5C94.2,370.3,94.2,364.9,90.8,361.6z"/>
	</g>
</g>
<g>
	<g>
		<path class="st0" d="M78.8,397.8l-30.2-30.2c-3.3-3.3-8.7-3.3-12.1,0c-3.3,3.3-3.3,8.7,0,12.1l30.2,30.2c1.7,1.7,3.8,2.5,6,2.5
			c2.2,0,4.4-0.8,6-2.5C82.1,406.5,82.1,401.1,78.8,397.8z"/>
	</g>
</g>
<g>
	<g>
		<path class="st0" d="M134.3,417.9l-9.9-9.9c-7.2-7.2-19-7.2-26.3,0l-9.9,9.9c-7.2,7.2-7.2,19,0,26.3l9.9,9.9
			c3.6,3.6,8.4,5.4,13.1,5.4c4.8,0,9.5-1.8,13.1-5.4l9.9-9.9C141.5,437,141.5,425.2,134.3,417.9z M122.2,432.1l-9.9,9.9
			c-0.6,0.6-1.6,0.6-2.2,0l-9.9-9.9c-0.6-0.6-0.6-1.6,0-2.1l9.9-9.9c0.6-0.6,1.6-0.6,2.1,0l9.9,9.9
			C122.8,430.6,122.8,431.5,122.2,432.1z"/>
	</g>
</g>
<g>
	<g>
		<path class="st0" d="M509.4,105.3L406.8,2.7c-3.3-3.3-8.7-3.3-12.1,0L223.4,174c-3.3,3.3-3.3,8.7,0,12.1l61.5,61.5
			c2,20.7,20.2,38.9,40.8,40.8l0.3,0.3c1.6,1.6,3.8,2.5,6,2.5c2.3,0,4.4-0.9,6-2.5l171.3-171.4c1.6-1.6,2.5-3.8,2.5-6
			C511.9,109.1,511,106.9,509.4,105.3z M331,271.7c-0.5-0.1-1-0.1-1.5-0.1c-14.2,0-27.7-13.4-27.7-27.7c0-2.3-0.9-4.4-2.5-6
			l-57.7-57.7L400.8,20.8l90.5,90.5L331,271.7z"/>
	</g>
</g>
<g>
	<g>
		<path class="st0" d="M289.8,324.9l-0.3-0.3c-2-20.7-20.2-38.9-40.8-40.8l-61.5-61.5c-3.3-3.3-8.7-3.3-12.1,0L2.6,394.9
			c-3.3,3.3-3.3,8.7,0,12.1l102.6,102.6c1.6,1.6,3.8,2.5,6,2.5c2.3,0,4.4-0.9,6-2.5L289.8,337C293.1,333.6,293.1,328.2,289.8,324.9z
			 M111.2,491.4l-90.5-90.5l160.5-160.5l57.7,57.7c1.6,1.6,3.8,2.5,6,2.5c14.2,0,27.7,13.4,27.7,27.7c0,0.5,0,1,0.1,1.5L111.2,491.4
			z"/>
	</g>
</g>
</svg>
