<?xml version="1.0" encoding="utf-8"?>
<!-- Generator: Adobe Illustrator 22.0.1, SVG Export Plug-In . SVG Version: 6.00 Build 0)  -->
<svg version="1.1" id="Capa_1" xmlns="http://www.w3.org/2000/svg" xmlns:xlink="http://www.w3.org/1999/xlink" x="0px" y="0px"
	 viewBox="0 0 512 512" style="enable-background:new 0 0 512 512;" xml:space="preserve">
<style type="text/css">
	.st0{fill:#E04141;}
</style>
<g>
	<g>
		<path class="st0" d="M503.5,196.3H8.5c-4.7,0-8.5,3.8-8.5,8.5v256c0,4.7,3.8,8.5,8.5,8.5h494.9c4.7,0,8.5-3.8,8.5-8.5v-256
			C512,200.1,508.2,196.3,503.5,196.3z M494.9,452.3H17.1V213.3h477.9L494.9,452.3L494.9,452.3z"/>
	</g>
</g>
<g>
	<g>
		<path class="st0" d="M68.3,42.7H25.6c-4.3,0-8,3.3-8.5,7.6L0.1,203.9c-0.3,2.4,0.5,4.8,2.1,6.6c1.6,1.8,3.9,2.8,6.4,2.8h59.7
			c4.7,0,8.5-3.8,8.5-8.5V51.2C76.8,46.5,73,42.7,68.3,42.7z M59.7,196.3H18.1L33.2,59.7h26.5V196.3z"/>
	</g>
</g>
<g>
	<g>
		<path class="st0" d="M511.9,203.9L494.9,50.3c-0.5-4.3-4.1-7.6-8.5-7.6h-42.7c-4.7,0-8.5,3.8-8.5,8.5v153.6c0,4.7,3.8,8.5,8.5,8.5
			h59.7c2.4,0,4.7-1,6.4-2.8C511.4,208.7,512.2,206.3,511.9,203.9z M452.3,196.3V59.7h26.5l15.2,136.5L452.3,196.3L452.3,196.3z"/>
	</g>
</g>
<g>
	<g>
		<path class="st0" d="M443.7,59.7H68.3c-4.7,0-8.5,3.8-8.5,8.5v34.1c0,4.7,3.8,8.5,8.5,8.5h375.5c4.7,0,8.5-3.8,8.5-8.5V68.3
			C452.3,63.5,448.4,59.7,443.7,59.7z M435.2,93.9H76.8V76.8h358.4V93.9z"/>
	</g>
</g>
<g>
	<g>
		<path class="st0" d="M142.4,247.5H96.5c-10.9,0-19.7,8.8-19.7,19.7v45.9c0,10.9,8.8,19.7,19.7,19.7h45.9
			c10.9,0,19.7-8.8,19.7-19.7v-45.9C162.1,256.3,153.3,247.5,142.4,247.5z M145.1,313.1c0,1.5-1.2,2.7-2.7,2.7H96.5
			c-1.5,0-2.7-1.2-2.7-2.6v-45.9c0-1.5,1.2-2.7,2.7-2.7h45.9c1.5,0,2.7,1.2,2.7,2.6V313.1z"/>
	</g>
</g>
<g>
	<g>
		<path class="st0" d="M415.5,247.5h-45.9c-10.9,0-19.7,8.8-19.7,19.7v45.9c0,10.9,8.8,19.7,19.7,19.7h45.9
			c10.9,0,19.7-8.8,19.7-19.7v-45.9C435.2,256.3,426.4,247.5,415.5,247.5z M418.1,313.1c0,1.5-1.2,2.7-2.7,2.7h-45.9
			c-1.5,0-2.7-1.2-2.7-2.6v-45.9c0-1.5,1.2-2.7,2.7-2.7h45.9c1.5,0,2.7,1.2,2.7,2.6V313.1z"/>
	</g>
</g>
<g>
	<g>
		<path class="st0" d="M469.3,196.3H42.7c-4.7,0-8.5,3.8-8.5,8.5v59.8c0,18.8,15.3,34.1,34.1,34.1h17.1c4.7,0,8.5-3.8,8.5-8.5v-22.9
			c0-1.5,1.2-2.7,2.7-2.7h45.9c1.5,0,2.7,1.2,2.7,2.7v22.9c0,4.7,3.8,8.5,8.5,8.5h204.8c4.7,0,8.5-3.8,8.5-8.5v-22.9
			c0-1.5,1.2-2.7,2.7-2.7h45.9c1.5,0,2.7,1.2,2.7,2.7v22.9c0,4.7,3.8,8.5,8.5,8.5h17.1c18.8,0,34.1-15.3,34.1-34.1v-59.8
			C477.9,200.1,474,196.3,469.3,196.3z M460.8,264.6c0,9.4-7.6,17-17,17h-8.6v-14.4c0-10.9-8.8-19.7-19.7-19.7h-45.9
			c-10.9,0-19.7,8.8-19.7,19.7v14.4H162.1v-14.4c0-10.9-8.8-19.7-19.7-19.7H96.5c-10.9,0-19.7,8.8-19.7,19.7v14.4h-8.6
			c-9.4,0-17-7.6-17-17v-51.2h409.6L460.8,264.6L460.8,264.6z"/>
	</g>
</g>
<g>
	<g>
		<path class="st0" d="M119.5,290.1c-4.7,0-8.5,3.8-8.5,8.5v25.6c0,4.7,3.8,8.5,8.5,8.5s8.5-3.8,8.5-8.5v-25.6
			C128,293.9,124.2,290.1,119.5,290.1z"/>
	</g>
</g>
<g>
	<g>
		<path class="st0" d="M392.5,290.1c-4.7,0-8.5,3.8-8.5,8.5v25.6c0,4.7,3.8,8.5,8.5,8.5s8.5-3.8,8.5-8.5v-25.6
			C401.1,293.9,397.2,290.1,392.5,290.1z"/>
	</g>
</g>
<g>
	<g>
		<path class="st0" d="M42.7,375.5c-4.7,0-8.5,3.8-8.5,8.5v42.7c0,4.7,3.8,8.5,8.5,8.5s8.5-3.8,8.5-8.5V384
			C51.2,379.3,47.4,375.5,42.7,375.5z"/>
	</g>
</g>
<g>
	<g>
		<path class="st0" d="M469.3,375.5c-4.7,0-8.5,3.8-8.5,8.5v42.7c0,4.7,3.8,8.5,8.5,8.5s8.5-3.8,8.5-8.5V384
			C477.9,379.3,474,375.5,469.3,375.5z"/>
	</g>
</g>
<g>
	<g>
		<path class="st0" d="M366.9,418.1H145.1c-4.7,0-8.5,3.8-8.5,8.5s3.8,8.5,8.5,8.5h221.9c4.7,0,8.5-3.8,8.5-8.5
			S371.6,418.1,366.9,418.1z"/>
	</g>
</g>
<g>
	<g>
		<path class="st0" d="M469.3,418.1h-59.7c-4.7,0-8.5,3.8-8.5,8.5s3.8,8.5,8.5,8.5h59.7c4.7,0,8.5-3.8,8.5-8.5
			S474,418.1,469.3,418.1z"/>
	</g>
</g>
<g>
	<g>
		<path class="st0" d="M102.4,418.1H42.7c-4.7,0-8.5,3.8-8.5,8.5s3.8,8.5,8.5,8.5h59.7c4.7,0,8.5-3.8,8.5-8.5
			S107.1,418.1,102.4,418.1z"/>
	</g>
</g>
<g>
	<g>
		<path class="st0" d="M187.7,162.1h-85.3c-4.7,0-8.5,3.8-8.5,8.5v34.1c0,4.7,3.8,8.5,8.5,8.5h85.3c4.7,0,8.5-3.8,8.5-8.5v-34.1
			C196.3,165.9,192.4,162.1,187.7,162.1z M179.2,196.3h-68.3v-17.1h68.3V196.3z"/>
	</g>
</g>
<g>
	<g>
		<path class="st0" d="M332.8,162.1h-59.7c-4.7,0-8.5,3.8-8.5,8.5v34.1c0,4.7,3.8,8.5,8.5,8.5h59.7c4.7,0,8.5-3.8,8.5-8.5v-34.1
			C341.3,165.9,337.5,162.1,332.8,162.1z M324.3,196.3h-42.7v-17.1h42.7V196.3z"/>
	</g>
</g>
<g>
	<g>
		<path class="st0" d="M273.1,128h-85.3c-4.7,0-8.5,3.8-8.5,8.5v68.3c0,4.7,3.8,8.5,8.5,8.5h85.3c4.7,0,8.5-3.8,8.5-8.5v-68.3
			C281.6,131.8,277.8,128,273.1,128z M264.5,196.3h-68.3v-51.2h68.3V196.3z"/>
	</g>
</g>
<g>
	<g>
		<path class="st0" d="M409.6,145.1h-76.8c-4.7,0-8.5,3.8-8.5,8.5v51.2c0,4.7,3.8,8.5,8.5,8.5h76.8c4.7,0,8.5-3.8,8.5-8.5v-51.2
			C418.1,148.9,414.3,145.1,409.6,145.1z M401.1,196.3h-59.7v-34.1h59.7V196.3z"/>
	</g>
</g>
</svg>
