<?xml version="1.0" encoding="utf-8"?>
<!-- Generator: Adobe Illustrator 22.0.1, SVG Export Plug-In . SVG Version: 6.00 Build 0)  -->
<svg version="1.1" id="Layer_1" xmlns="http://www.w3.org/2000/svg" xmlns:xlink="http://www.w3.org/1999/xlink" x="0px" y="0px"
	 viewBox="0 0 512 512" style="enable-background:new 0 0 512 512;" xml:space="preserve">
<style type="text/css">
	.st0{fill:#E04141;}
</style>
<g transform="translate(1 1)">
	<g>
		<g>
			<path class="st0" d="M465.9,158.3c2.6-1.7,3.4-5.1,2.6-7.7v-0.9c-6-29-22.2-54.7-46.1-72.6c-2.6-1.7-5.1-2.6-8.5-0.9
				C384,86.5,360,86.5,341.3,75.4c-29.9-17.9-35-60.6-35-60.6c0-3.4-2.6-6-6-6.8c-29-12-61.5-12-91.4,0c-2.6,0.9-5.1,3.4-5.1,6.8
				c0,0-5.1,41.8-35,60.6c-18.8,12-43.6,12-73.4,0.9c-2.6-1.7-5.1-0.9-7.7,0.9c-23.9,17.9-40.1,43.6-46.1,72.6v0.9
				c0,2.6,0.9,6,2.6,7.7c25.6,25.6,40.1,64.1,40.1,105s-14.5,79.4-40.1,105c-2.6,1.7-3.4,5.1-2.6,7.7v0.9c6,29,22.2,54.7,46.1,72.6
				c2.6,1.7,5.1,2.6,7.7,1.7c5.1-1.7,112.7-38.4,152,54.7c0.9,3.4,4.3,5.1,7.7,5.1c3.4,0,6.8-1.7,7.7-6
				c40.1-92.2,147.8-56.4,152-54.7c2.6,1.7,5.1,0.9,7.7-0.9c23.9-17.9,40.1-43.6,46.1-72.6v-0.9c0-2.6-0.9-6-2.6-7.7
				C413,315.4,413,211.2,465.9,158.3z M415.6,432.4c-22.2-6-115.3-27.3-160.6,50.4c-27.3-46.1-71.7-57.2-107.6-57.2
				c-23.9,0-44.4,5.1-53,7.7c-17.1-14.5-29.9-34.2-35-56.4c26.5-28.2,41.8-69.2,41.8-113.6s-15.4-85.4-41.8-114.4
				c5.1-22.2,17.9-41.8,35-56.4c33.3,11.1,61.5,10.2,83.7-3.4C208,70.3,217.4,34.4,220,20.8c23.1-7.7,47-7.7,70,0
				c2.6,13.7,12,49.5,41.8,68.3c22.2,13.7,50.4,14.5,83.7,3.4c17.9,14.5,29.9,34.2,35,56.4c-55.5,59.8-55.5,167.4,0,227.2
				C445.5,398.3,433.5,417.9,415.6,432.4z"/>
			<path class="st0" d="M266.1,421.3c-3.4,3.4-7.7,6-11.1,9.4c-3.4-3.4-7.7-6.8-11.1-9.4c-4.3-2.6-9.4-1.7-12,1.7
				c-2.6,3.4-1.7,9.4,1.7,12c6,3.4,10.2,7.7,15.4,12.8c1.7,1.7,3.4,2.6,6,2.6s4.3-0.9,6-2.6c5.1-4.3,10.2-8.5,15.4-12.8
				c3.4-2.6,4.3-8.5,1.7-12C275.5,419.6,269.5,418.8,266.1,421.3z"/>
			<path class="st0" d="M203.8,400.8c-11.1-4.3-23.9-6.8-36.7-7.7c-5.1,0-8.5,3.4-9.4,7.7c-0.9,5.1,3.4,8.5,7.7,9.4
				c12,0.9,23.1,3.4,33.3,6.8c0.9,0,1.7,0,2.6,0c3.4,0,6.8-2.6,7.7-5.1C210.6,406.8,208,402.5,203.8,400.8z"/>
			<path class="st0" d="M122.6,393.1c-6,0.9-12,1.7-17.1,2.6c-3.4-4.3-6-7.7-7.7-12c3.4-4.3,6.8-9.4,10.2-14.5
				c1.7-4.3,0.9-9.4-3.4-12c-4.3-1.7-9.4-0.9-12,3.4c-3.4,6-6.8,12-11.1,17.1c-1.7,2.6-1.7,6-0.9,8.5c3.4,9.4,8.5,17.1,15.4,24.8
				c0.9,1.7,3.4,2.6,6,2.6c0,0,0.9,0,1.7,0c6.8-1.7,13.7-2.6,20.5-3.4c5.1-0.9,8.5-5.1,7.7-9.4C131.2,395.7,127.7,392.3,122.6,393.1
				z"/>
			<path class="st0" d="M126,201.8c-0.9-5.1-6-7.7-10.2-6c-5.1,0.9-7.7,6-6,10.2c3.4,11.1,5.1,23.1,6.8,35c0.9,4.3,4.3,7.7,8.5,7.7
				c0,0,0.9,0,0.9,0.9c5.1-0.9,8.5-5.1,7.7-9.4C132,227.5,129.5,214.6,126,201.8z"/>
			<path class="st0" d="M125.2,277.8c-5.1-0.9-8.5,3.4-9.4,7.7c-0.9,12.8-3.4,24.8-6.8,35.9c-0.9,4.3,1.7,8.5,6,10.2
				c0.9,0,1.7,0,2.6,0c4.3,0,7.7-2.6,7.7-6c3.4-12,6-25.6,7.7-38.4C132.9,282.1,129.5,278.7,125.2,277.8z"/>
			<path class="st0" d="M107.3,157.4c-2.6-5.1-6-10.2-9.4-14.5c1.7-4.3,4.3-7.7,6.8-11.1c6,0.9,12,1.7,17.1,2.6
				c4.3,0,8.5-3.4,9.4-7.7c0-4.3-3.4-8.5-8.5-9.4c-6-0.9-12.8-1.7-19.6-3.4c-3.4-0.9-6.8,0-8.5,2.6c-6,6.8-11.1,15.4-14.5,23.9
				c-1.7,2.6-0.9,6,0.9,8.5C85,154,88.5,160,91.9,166c1.7,2.6,5.1,4.3,7.7,4.3c1.7,0,3.4,0,4.3-0.9
				C108.1,166.8,109.8,161.7,107.3,157.4z"/>
			<path class="st0" d="M198.6,95.1c-9.4,7.7-19.6,14.5-31.6,17.9c-4.3,1.7-6.8,6.8-5.1,11.1c1.7,3.4,5.1,6,8.5,6c0.9,0,1.7,0,1.7,0
				c13.7-5.1,26.5-12,37.6-22.2c3.4-3.4,4.3-8.5,0.9-12C207.2,92.5,202,91.7,198.6,95.1z"/>
			<path class="st0" d="M276.4,40.4c-0.9-3.4-3.4-5.1-6.8-6c-9.4-1.7-19.6-1.7-29.9,0c-3.4,0.9-6,2.6-6.8,6
				c-1.7,6.8-4.3,12.8-6.8,18.8c-1.7,4.3,0,9.4,4.3,11.1c0.9,0.9,2.6,0.9,3.4,0.9c3.4,0,6-1.7,6-5.1c2.6-5.1,5.1-11.1,6.8-16.2
				c5.1-0.9,9.4-0.9,14.5,0c2.6,6,4.3,11.1,6.8,16.2c1.7,4.3,6.8,6,11.1,4.3c4.3-1.7,6-6.8,4.3-11.1
				C280.6,53.2,278.1,47.3,276.4,40.4z"/>
			<path class="st0" d="M339.6,130.1c3.4,0,6.8-2.6,7.7-6c1.7-5.1-0.9-9.4-5.1-11.1c-12-3.4-22.2-9.4-31.6-17.9
				c-3.4-2.6-8.5-2.6-12,0.9c-2.6,3.4-2.6,8.5,0.9,12c11.1,10.2,23.9,17.9,37.6,22.2C337.8,130.1,338.7,130.1,339.6,130.1z"/>
			<path class="st0" d="M388.2,134.4c6,0,11.1-1.7,17.1-2.6c2.6,3.4,5.1,6.8,6.8,11.1c-3.4,4.3-6.8,9.4-9.4,14.5
				c-1.7,4.3-0.9,9.4,3.4,12c1.7,0.9,2.6,0.9,4.3,0.9c2.6,0,5.1-1.7,6.8-4.3c3.4-6,6.8-12,11.1-17.1c1.7-2.6,1.7-6,0.9-8.5
				c-3.4-8.5-8.5-17.1-14.5-23.9c-2.6-2.6-5.1-3.4-8.5-2.6c-6.8,1.7-12.8,2.6-19.6,3.4c-5.1,0.9-8.5,5.1-7.7,9.4
				C379.7,131.8,383.1,135.2,388.2,134.4z"/>
			<path class="st0" d="M384,248.8h0.9c4.3,0,7.7-2.6,8.5-7.7c0.9-12.8,3.4-24.8,6.8-35.9c0.9-4.3-1.7-9.4-6-10.2
				c-4.3-0.9-8.5,1.7-10.2,6c-3.4,12-6,25.6-7.7,38.4C376.3,243.7,379.7,248,384,248.8z"/>
			<path class="st0" d="M392.5,331.7c0.9,0,1.7,0,1.7,0c5.1-0.9,7.7-6,6-10.2c-3.4-12-5.1-23.9-6.8-35.9c-0.9-5.1-4.3-8.5-9.4-7.7
				c-5.1,0.9-8.5,5.1-7.7,9.4c1.7,12.8,4.3,25.6,7.7,38.4C385.7,329.1,389.1,331.7,392.5,331.7z"/>
			<path class="st0" d="M402.7,369.2c2.6,5.1,6,10.2,9.4,14.5c-2.6,4.3-5.1,8.5-7.7,12c-6-0.9-11.1-1.7-17.1-2.6
				c-5.1,0-8.5,3.4-9.4,7.7c0,4.3,3.4,8.5,7.7,9.4c6.8,0.9,13.7,1.7,20.5,3.4c0.9,0,0.9,0,1.7,0c2.6,0,5.1-0.9,6.8-2.6
				c6.8-7.7,12-15.4,15.4-24.8c1.7-2.6,0.9-6-0.9-8.5c-4.3-5.1-7.7-11.1-11.1-17.1c-2.6-4.3-7.7-6-12-3.4
				C401.9,359.8,400.2,365,402.7,369.2z"/>
			<path class="st0" d="M343,392.3c-12.8,1.7-24.8,4.3-36.7,7.7c-4.3,1.7-6.8,6.8-5.1,11.1c1.7,3.4,5.1,6,8.5,6
				c0.9,0,1.7-0.9,1.7-0.9c10.2-3.4,21.4-6,33.3-6.8c5.1-0.9,8.5-5.1,7.7-9.4C351.5,394.9,348.1,392.3,343,392.3z"/>
		</g>
	</g>
</g>
</svg>
